<svg id="Layer_1" data-name="Layer 1" xmlns="http://www.w3.org/2000/svg" width="72" height="28.78" viewBox="0 0 72 28.78"><path d="M36,0C16.09,0,0,6.45,0,14.39S16.09,28.78,36,28.78s36-6.45,36-14.39S55.91,0,36,0" style="fill:#0f2a78"/><path d="M36,1.63C16.74,1.63,1.13,7.36,1.13,14.39S16.74,27.15,36,27.15s34.87-5.73,34.87-12.76S55.26,1.63,36,1.63m0,24.68c-19,0-34.39-5.37-34.39-11.92S17,2.47,36,2.47,70.39,7.84,70.39,14.39,55,26.31,36,26.31M28,16.24c-.29.45-.94,1.24-1.39,1.24-.12,0-.19-.07-.19-.21a1.86,1.86,0,0,1,.07-.43l1.94-5.52H26.79l-.22.6a1.23,1.23,0,0,0-1.15-.62c-1.89,0-5,2.71-5,5.49a1.69,1.69,0,0,0,1.71,1.89,3.38,3.38,0,0,0,2.52-1.8h0a5.73,5.73,0,0,0-.07.68c0,.6.31,1.05.91,1.05,1.35,0,2.52-1.77,2.9-2.37Zm-1.92-2.95s-.53,1.27-1.05,2.28c-.44.81-1.4,2-2.09,2-.51,0-.77-.36-.77-1,0-2,2.18-4.86,3.41-4.86.4,0,.64.36.64.81a1.93,1.93,0,0,1-.14.7m24.46,4.55a1.28,1.28,0,0,1-1.32-1.41,4.57,4.57,0,0,1,.08-.86c3.5-.12,5.06-1.37,5.06-2.71,0-1-.82-1.66-2.09-1.66a5.11,5.11,0,0,0-4.84,5A2.3,2.3,0,0,0,50,18.68,5.06,5.06,0,0,0,53.8,16.4h-.41a4.26,4.26,0,0,1-2.86,1.44m1.54-6.18c.55,0,.77.4.77.88,0,.75-.94,2.47-3.43,2.52.24-1.46,1.39-3.4,2.66-3.4M31,18.47H29.38s1.34-3.82,1.75-5.16a2.83,2.83,0,0,0,.12-.62.17.17,0,0,0-.17-.19c-.16,0-.57.19-1.32,1.24h-.43c.89-1.46,2-2.44,2.76-2.44a.65.65,0,0,1,.72.74,10.43,10.43,0,0,1-.48,2.11c1.44-2.61,2.35-3,2.93-3a.87.87,0,0,1,.93.91,1.13,1.13,0,0,1-1,1.15c-.41,0-.7-.31-.7-.84v-.16c-.4.21-1.46,1.15-2.73,4.24ZM20.22,9a3.09,3.09,0,0,0-.91-.12,6.39,6.39,0,0,0-6,6.23c0,2.3,1.42,2.9,2.57,2.9a4.53,4.53,0,0,0,3.19-1.32h.48a5.2,5.2,0,0,1-4.2,2.12c-2.85,0-4-1.73-4-3.72,0-3.7,3.94-6.81,8.06-6.81,1.61,0,2.52.57,2.52,1.39a1,1,0,0,1-1,1A.86.86,0,0,1,20,9.71,2.07,2.07,0,0,1,20.22,9M44.8,11.32h1.61l-1.92,5.4a2.27,2.27,0,0,0-.12.6c0,.16.07.24.19.24.43,0,1.18-.7,1.63-1.32h.43c-.71,1.2-2,2.44-3.14,2.44a.83.83,0,0,1-.91-.86A5,5,0,0,1,43,16.24Zm2.33-2.09a1.37,1.37,0,0,1-1.25,1.37.65.65,0,0,1-.67-.74,1.37,1.37,0,0,1,1.25-1.37.65.65,0,0,1,.67.74M38,18.47h-1.6s1.34-3.82,1.75-5.16a2.83,2.83,0,0,0,.12-.62.17.17,0,0,0-.17-.19c-.17,0-.58.19-1.32,1.24h-.43c.89-1.46,2-2.44,2.76-2.44a.65.65,0,0,1,.72.74,11.24,11.24,0,0,1-.48,2.11c1.44-2.61,2.35-3,2.92-3a.88.88,0,0,1,.94.91,1.13,1.13,0,0,1-1,1.15c-.41,0-.7-.31-.7-.84v-.16c-.41.21-1.46,1.15-2.73,4.24Zm18.83,0H55.23s1.35-3.82,1.76-5.16a2.83,2.83,0,0,0,.12-.62.17.17,0,0,0-.17-.19c-.17,0-.58.19-1.32,1.24h-.43c.88-1.46,2-2.44,2.75-2.44a.65.65,0,0,1,.72.74,10.43,10.43,0,0,1-.48,2.11c1.44-2.61,2.36-3,2.93-3a.88.88,0,0,1,.94.91,1.13,1.13,0,0,1-1,1.15c-.41,0-.7-.31-.7-.84v-.16c-.41.21-1.46,1.15-2.73,4.24Z" style="fill:#fff"/></svg>